PathFileType	4	(X/Y/Z)	D:\TRACE\v60_Jaco2_6-2-23\BothDRS_Motion3_1-platform.trc
DataRate	CameraRate	NumFrames	NumMarkers	Units	OrigDataRate	OrigDataStartFrame	OrigNumFrames
100.00	100.00	      43	5	mm	100.00	1751	      7000
Frame#	Time	Left_Front			Right_Front			Left_Aft			Right_Aft			Post			
		X1	Y1	Z1	X2	Y2	Z2	X3	Y3	Z3	X4	Y4	Z4	X5	Y5	Z5	

1751	17.500	-799.48785	11.05767	-650.33240	771.58447	9.38501	-627.96643	-730.13098	11.28953	485.72949	684.12921	7.85497	588.82867	-3.04622	1309.03479	-962.02087	
1752	17.510	-799.46741	11.00309	-650.40625	771.60663	9.29257	-628.00690	-730.12421	11.32278	485.72131	684.17554	7.89257	588.80524	-3.08784	1308.85010	-962.29224	
1753	17.520	-799.50922	10.97746	-650.30768	771.56555	9.18853	-628.03149	-730.07642	11.32886	485.71835	684.15869	7.92875	588.78119	-3.09042	1308.70288	-962.46265	
1754	17.530	-799.43927	10.87015	-650.35736	771.60620	9.08259	-628.00989	-730.06500	11.35141	485.73215	684.10828	7.98763	588.76740	-3.16257	1308.60583	-962.53015	
1755	17.540	-799.09998	10.70389	-650.79108	771.63068	8.97727	-628.04602	-730.05945	11.41906	485.71057	684.10620	8.02811	588.72992	-3.06975	1308.42114	-962.62787	
1756	17.550	-799.08295	10.65814	-650.77716	771.59283	8.85459	-628.06024	-730.05823	11.46860	485.71774	684.06958	8.10711	588.70422	-3.10048	1308.24988	-962.59241	
1757	17.560	-799.05597	10.60911	-650.76160	771.60327	8.69343	-628.07770	-730.09418	11.51893	485.71872	684.04083	8.18785	588.66266	-3.05575	1308.05225	-962.67877	
1758	17.570	-799.01892	10.55918	-650.76740	771.52179	8.54466	-628.23492	-730.03455	11.61146	485.67072	684.00806	8.26897	588.61115	-3.00721	1307.83411	-962.67896	
1759	17.580	-799.05701	10.45046	-650.76514	771.50372	8.43406	-628.24762	-730.04620	11.69507	485.65381	683.99493	8.34456	588.58588	-2.94145	1307.75818	-962.72614	
1760	17.590	-799.08557	10.34079	-650.80524	771.51459	8.33836	-628.26642	-729.84503	11.42906	485.84106	683.94849	8.43961	588.53162	-3.00795	1307.70166	-963.01086	
1761	17.600	-799.04980	10.23633	-650.89423	771.57220	8.25555	-628.29193	-730.00061	11.72385	485.57654	683.95203	8.53597	588.53290	-3.13170	1307.61829	-963.43164	
1762	17.610	-799.00543	10.12620	-650.91290	771.58502	8.12780	-628.30408	-729.90771	11.77166	485.52274	684.01587	8.67807	588.52441	-3.13490	1307.42102	-963.72803	
1763	17.620	-799.05518	10.04838	-650.99207	771.65118	8.02793	-628.30627	-729.89612	11.81684	485.51306	684.26526	8.72440	588.38226	-3.22695	1307.17273	-964.19397	
1764	17.630	-798.97858	9.83357	-651.06732	771.64496	7.93603	-628.33704	-729.90149	11.84471	485.40927	684.00537	8.81907	588.42450	-3.16773	1306.91577	-964.71899	
1765	17.640	-799.04150	9.80788	-651.14075	771.60303	7.82900	-628.35297	-729.83197	11.95900	485.42175	684.31488	8.91024	588.26099	-3.08185	1306.75195	-965.22906	
1766	17.650	-799.02441	9.63754	-651.28137	771.62079	7.71890	-628.38562	-729.83209	12.05976	485.38834	684.41980	9.07242	588.26215	-3.06604	1306.46704	-965.68677	
1767	17.660	-799.06158	9.29314	-651.29102	771.66852	7.39073	-628.38507	-729.80908	12.17926	485.42081	684.45605	9.17538	588.24213	-2.95562	1306.15662	-966.09143	
1768	17.670	-799.16858	9.20810	-651.44006	771.70605	7.01114	-628.31403	-729.81488	12.17172	485.32471	684.50354	9.29735	588.25549	-2.96917	1306.01672	-966.38293	
1769	17.680	-799.13849	9.00344	-651.41095	771.66357	7.06336	-628.37201	-729.58344	12.12223	485.27908	684.37677	9.41027	588.24017	-2.91513	1305.93713	-966.68201	
1770	17.690	-799.10016	8.71996	-651.19641	771.45966	6.91023	-628.60382	-729.70490	12.13404	485.37024	684.40472	9.39861	588.16418	-2.87726	1305.77112	-966.94910	
1771	17.700	-799.10663	8.67255	-651.24567	771.50781	6.85863	-628.45313	-729.79590	12.43361	485.33350	684.36414	9.60339	588.17834	-3.03022	1305.64856	-967.18549	
1772	17.710	-799.13513	8.41689	-651.20068	771.28644	6.59094	-628.65979	-729.86182	12.61544	485.37677	684.27802	9.88891	588.11261	-3.23102	1305.40515	-967.43719	
1773	17.720	-799.26068	8.32527	-651.28955	771.36493	6.64501	-628.49420	-729.98090	12.60627	485.25278	684.26782	9.93813	588.05450	-3.44469	1305.11755	-967.64032	
1774	17.730	-799.36115	8.20805	-651.25464	771.06744	6.47602	-628.74487	-729.83698	12.57985	485.22281	684.10083	10.11958	587.95276	-3.47822	1304.87317	-967.72430	
1775	17.740	-799.43597	8.23395	-651.29364	770.90741	6.15568	-628.81024	-730.22418	12.76408	485.18869	683.91901	10.04154	587.95544	-3.57589	1304.71790	-967.91144	
1776	17.750	-799.42859	8.16586	-651.30200	770.85242	6.14034	-628.79987	-730.23425	12.80625	485.16342	683.58582	10.57311	588.30078	-3.73734	1304.51196	-968.14966	
1777	17.760	-799.52612	8.07707	-651.31726	770.81152	6.12362	-628.80829	-730.24451	12.93406	485.07108	683.60828	10.59638	588.12634	-3.78172	1304.47766	-968.30591	
1778	17.770	-799.66248	7.97499	-651.39349	771.05292	5.93983	-629.22711	-730.31165	13.02099	484.95276	683.54968	10.68596	588.07605	-3.83176	1304.35925	-968.56342	
1779	17.780	-799.81769	7.86939	-651.56732	770.76404	5.83681	-628.86267	-730.36151	13.04045	484.94022	683.46497	10.71973	588.03821	-3.79639	1304.11707	-968.78577	
1780	17.790	-799.90863	7.68580	-651.66016	770.63647	5.71948	-628.86658	-730.45905	13.16508	484.93274	683.44781	10.78692	588.03430	-3.79246	1303.95288	-969.12183	
1781	17.800	-799.95581	7.59100	-651.61621	770.52820	5.70684	-628.82196	-730.53503	13.24108	484.89905	683.38611	10.83020	588.05096	-3.85491	1303.79834	-969.55383	
1782	17.810	-799.99469	7.45044	-651.72845	770.47241	5.59489	-628.87073	-730.68439	13.44823	484.87280	683.13055	11.02976	588.12000	-4.01372	1303.64722	-969.84088	
1783	17.820	-800.13501	7.37710	-651.83997	770.43207	5.47126	-628.95642	-730.79962	13.59132	484.81589	683.11426	10.96022	588.05713	-4.37425	1303.50452	-970.24152	
1784	17.830	-800.39618	7.26018	-652.07709	770.37903	5.32351	-628.97198	-730.99921	13.77986	484.76807	682.98663	11.03658	588.02411	-4.60349	1303.32202	-970.75543	
1785	17.840	-800.90076	6.78490	-652.13898	770.28033	5.20713	-628.94702	-731.17017	13.85880	484.77609	682.78680	11.14716	588.05969	-4.44036	1303.00940	-970.85492	
1786	17.850	-800.89014	6.73180	-652.10321	770.12360	4.99798	-628.93469	-731.21613	13.90963	484.76422	682.64764	11.25302	588.00269	-4.37393	1302.76685	-970.87976	
1787	17.860	-800.90308	6.71316	-651.99915	770.06226	4.85740	-628.98334	-731.31403	13.96607	484.74933	682.50891	11.35578	587.96960	-4.38943	1302.63696	-971.01410	
1788	17.870	-801.03033	6.67334	-652.01636	769.98401	4.85321	-629.02722	-731.40143	14.02101	484.71185	682.38507	11.40672	587.90100	-4.49666	1302.49414	-971.18658	
1789	17.880	-800.89026	6.88358	-652.03583	769.91388	4.75764	-629.03467	-731.46350	14.04947	484.68393	682.31091	11.45463	587.79779	-4.61662	1302.35437	-971.40814	
1790	17.890	-800.95428	6.88650	-652.06458	769.74500	4.50601	-628.99469	-731.51685	14.01088	484.71909	682.23022	11.50484	587.74530	-4.71409	1302.10999	-971.53455	
1791	17.900	-801.02838	6.73652	-652.03619	769.68597	4.41945	-628.98901	-731.60773	14.01318	484.74380	682.19501	11.57511	587.76166	-4.90713	1301.90771	-971.71716	
1792	17.910	-801.12921	6.64672	-652.07208	769.60461	4.32286	-629.00818	-731.73932	14.03118	484.77988	682.10419	11.59133	587.81378	-5.00859	1301.83936	-971.86816	
1793	17.920	-801.20844	6.56105	-652.13159	769.48456	4.28426	-628.95447	-731.84296	14.14719	484.78400	681.98529	11.64777	587.78741	-5.15613	1301.77588	-972.07782	
